<?xml version="1.0" encoding="UTF-8"?>
<svg version="1.1" xmlns="http://www.w3.org/2000/svg" width="1024" height="1024">
<path d="M0 0 C1.27002869 -0.00705963 2.54005737 -0.01411926 3.84857178 -0.02139282 C7.92252683 -0.0389023 11.9963277 -0.04608475 16.0703125 -0.046875 C16.76515495 -0.04716957 17.45999741 -0.04746414 18.17589569 -0.04776764 C38.99489132 -0.04919335 59.55593576 0.15930524 80.1953125 3.203125 C80.88641113 3.30258423 81.57750977 3.40204346 82.28955078 3.5045166 C133.48293263 10.87997884 182.29907279 25.27637841 229.1953125 47.203125 C230.14712402 47.64736816 231.09893555 48.09161133 232.07958984 48.54931641 C253.38494806 58.5991563 273.88512844 70.71723556 293.1953125 84.203125 C293.86675293 84.66638184 294.53819336 85.12963867 295.22998047 85.60693359 C313.11162443 97.94652748 329.79849338 111.4764218 345.8671875 126.09375 C347.36535165 127.45114705 348.87499322 128.79603797 350.3984375 130.125 C356.28074573 135.28702559 361.84071792 140.74205647 367.3828125 146.265625 C368.14335938 147.02157959 368.90390625 147.77753418 369.6875 148.55639648 C374.39594878 153.27768463 378.85201536 158.14625363 383.1953125 163.203125 C384.21692444 164.35968804 385.24031614 165.51468182 386.265625 166.66796875 C394.36785618 175.84962198 401.88026267 185.3864716 409.1953125 195.203125 C409.68273926 195.85313477 410.17016602 196.50314453 410.67236328 197.17285156 C422.21015343 212.57491691 432.49107004 228.58718012 442.1953125 245.203125 C442.61780273 245.92274414 443.04029297 246.64236328 443.47558594 247.38378906 C482.48210191 314.23863151 506.1097731 394.45419021 506.3984375 472.0078125 C506.40549713 473.27784119 506.41255676 474.54786987 506.41983032 475.85638428 C506.4373398 479.93033933 506.44452225 484.0041402 506.4453125 488.078125 C506.44575436 489.12038868 506.44575436 489.12038868 506.44620514 490.18370819 C506.44763085 511.00270382 506.23913226 531.56374826 503.1953125 552.203125 C503.09585327 552.89422363 502.99639404 553.58532227 502.8939209 554.29736328 C495.51845866 605.49074513 481.12205909 654.30688529 459.1953125 701.203125 C458.52894775 702.63084229 458.52894775 702.63084229 457.84912109 704.08740234 C447.7992812 725.39276056 435.68120194 745.89294094 422.1953125 765.203125 C421.73205566 765.87456543 421.26879883 766.54600586 420.79150391 767.23779297 C408.45191002 785.11943693 394.9220157 801.80630588 380.3046875 817.875 C378.94729045 819.37316415 377.60239953 820.88280572 376.2734375 822.40625 C371.11141191 828.28855823 365.65638103 833.84853042 360.1328125 839.390625 C359.37685791 840.15117188 358.62090332 840.91171875 357.84204102 841.6953125 C353.12075287 846.40376128 348.25218387 850.85982786 343.1953125 855.203125 C342.03874946 856.22473694 340.88375568 857.24812864 339.73046875 858.2734375 C330.54881552 866.37566868 321.0119659 873.88807517 311.1953125 881.203125 C310.54530273 881.69055176 309.89529297 882.17797852 309.22558594 882.68017578 C293.82352059 894.21796593 277.81125738 904.49888254 261.1953125 914.203125 C260.11588379 914.83686035 260.11588379 914.83686035 259.01464844 915.48339844 C192.15980599 954.48991441 111.94424729 978.1175856 34.390625 978.40625 C33.12059631 978.41330963 31.85056763 978.42036926 30.54205322 978.42764282 C26.46809817 978.4451523 22.3942973 978.45233475 18.3203125 978.453125 C17.27804882 978.45356686 17.27804882 978.45356686 16.21472931 978.45401764 C-4.60426632 978.45544335 -25.16531076 978.24694476 -45.8046875 975.203125 C-46.49578613 975.10366577 -47.18688477 975.00420654 -47.89892578 974.9017334 C-99.09230763 967.52627116 -147.90844779 953.12987159 -194.8046875 931.203125 C-196.23240479 930.53676025 -196.23240479 930.53676025 -197.68896484 929.85693359 C-218.99432306 919.8070937 -239.49450344 907.68901444 -258.8046875 894.203125 C-259.81184814 893.50823975 -259.81184814 893.50823975 -260.83935547 892.79931641 C-278.72099943 880.45972252 -295.40786838 866.9298282 -311.4765625 852.3125 C-312.97472665 850.95510295 -314.48436822 849.61021203 -316.0078125 848.28125 C-321.89012073 843.11922441 -327.45009292 837.66419353 -332.9921875 832.140625 C-333.75273437 831.38467041 -334.51328125 830.62871582 -335.296875 829.84985352 C-340.00532378 825.12856537 -344.46139036 820.25999637 -348.8046875 815.203125 C-349.82629944 814.04656196 -350.84969114 812.89156818 -351.875 811.73828125 C-359.97723118 802.55662802 -367.48963767 793.0197784 -374.8046875 783.203125 C-375.29211426 782.55311523 -375.77954102 781.90310547 -376.28173828 781.23339844 C-387.81952843 765.83133309 -398.10044504 749.81906988 -407.8046875 733.203125 C-408.22717773 732.48350586 -408.64966797 731.76388672 -409.08496094 731.02246094 C-448.09147691 664.16761849 -471.7191481 583.95205979 -472.0078125 506.3984375 C-472.01840195 504.49339447 -472.01840195 504.49339447 -472.02920532 502.54986572 C-472.0467148 498.47591067 -472.05389725 494.4021098 -472.0546875 490.328125 C-472.05498207 489.63328255 -472.05527664 488.93844009 -472.05558014 488.22254181 C-472.05700585 467.40354618 -471.84850726 446.84250174 -468.8046875 426.203125 C-468.65549866 425.16647705 -468.65549866 425.16647705 -468.5032959 424.10888672 C-461.12783366 372.91550487 -446.73143409 324.09936471 -424.8046875 277.203125 C-424.36044434 276.25131348 -423.91620117 275.29950195 -423.45849609 274.31884766 C-413.4086562 253.01348944 -401.29057694 232.51330906 -387.8046875 213.203125 C-387.10980225 212.19596436 -387.10980225 212.19596436 -386.40087891 211.16845703 C-374.06128502 193.28681307 -360.5313907 176.59994412 -345.9140625 160.53125 C-344.55666545 159.03308585 -343.21177453 157.52344428 -341.8828125 156 C-336.72078691 150.11769177 -331.26575603 144.55771958 -325.7421875 139.015625 C-324.98623291 138.25507813 -324.23027832 137.49453125 -323.45141602 136.7109375 C-318.73012787 132.00248872 -313.86155887 127.54642214 -308.8046875 123.203125 C-307.64812446 122.18151306 -306.49313068 121.15812136 -305.33984375 120.1328125 C-296.15819052 112.03058132 -286.6213409 104.51817483 -276.8046875 97.203125 C-276.15467773 96.71569824 -275.50466797 96.22827148 -274.83496094 95.72607422 C-259.43289559 84.18828407 -243.42063238 73.90736746 -226.8046875 64.203125 C-226.08506836 63.78063477 -225.36544922 63.35814453 -224.62402344 62.92285156 C-157.76918099 23.91633559 -77.55362229 0.2886644 0 0 Z " fill="#1C2A69" transform="translate(485.8046875,22.796875)"/>
<path d="M0 0 C1.25087402 0.17660156 2.50174805 0.35320312 3.79052734 0.53515625 C36.1978286 5.24640748 68.4103723 14.99283353 98 29 C98.66950684 29.31549805 99.33901367 29.63099609 100.02880859 29.95605469 C139.88759411 48.8990382 178.23545283 77.60967796 205 113 C205.92516442 114.18537752 206.85099391 115.37023614 207.77734375 116.5546875 C215.55604578 126.60365566 222.46449685 137.10674016 229 148 C229.65331299 149.08571289 229.65331299 149.08571289 230.31982422 150.19335938 C257.60916313 196.06378988 271.97973606 251.9515878 274.84350586 305.11328125 C274.96397876 307.33554572 275.10393828 309.55675996 275.25219727 311.77734375 C276.01383883 323.51038594 276.18621489 335.21873615 276.18530273 346.97460938 C276.18748284 350.10040047 276.20570574 353.22583359 276.22460938 356.3515625 C276.26433875 370.66445444 275.39953533 384.76002027 274 399 C273.88487061 400.26102539 273.76974121 401.52205078 273.65112305 402.82128906 C271.17849701 429.26493824 265.97391348 454.9528456 257.88134766 480.24462891 C257.14483619 482.54719634 256.43102963 484.85431257 255.73046875 487.16796875 C245.28637636 520.41930178 228.60589923 551.71246241 207 579 C206.22011719 579.99257813 205.44023438 580.98515625 204.63671875 582.0078125 C191.77057222 598.0505032 177.25406129 613.37570801 161 626 C159.94629032 626.85346472 158.89428669 627.7090389 157.84375 628.56640625 C139.1772901 643.69197268 118.6443923 655.682174 97 666 C96.31244629 666.3285498 95.62489258 666.65709961 94.91650391 666.99560547 C62.75618688 682.20365753 28.14457197 690.40430838 -7 695 C-8.86881836 695.24556641 -8.86881836 695.24556641 -10.77539062 695.49609375 C-49.65611411 700.36876857 -90.47978712 699.8565033 -129.14697266 693.46826172 C-132.36975019 692.93931363 -135.59689897 692.44186627 -138.82421875 691.94140625 C-171.3189198 686.76743769 -202.38083053 677.40726209 -232 663 C-233.267229 662.38584229 -233.267229 662.38584229 -234.56005859 661.75927734 C-258.02278123 650.25415273 -280.36042998 635.41350945 -299.3984375 617.453125 C-301.59518404 615.38171835 -303.82823579 613.39569738 -306.125 611.4375 C-313.6696606 604.8810174 -320.59177274 597.66255082 -327 590 C-327.44150391 589.4829248 -327.88300781 588.96584961 -328.33789062 588.43310547 C-359.17530183 552.2304697 -379.08415177 509.5931582 -391.22509766 463.87744141 C-391.75453352 461.91148957 -392.30193284 459.95031026 -392.86474609 457.99365234 C-393.14012207 457.03023926 -393.41549805 456.06682617 -393.69921875 455.07421875 C-393.94889404 454.21787842 -394.19856934 453.36153809 -394.45581055 452.47924805 C-395.01966445 449.91041161 -395.09763157 447.621393 -395 445 C-394.34 445 -393.68 445 -393 445 C-393 445.66 -393 446.32 -393 447 C-392.34 447.12375 -391.68 447.2475 -391 447.375 C-388 448 -388 448 -384.57226562 449.02685547 C-379.02908523 450.41328141 -373.52565504 450.24881984 -367.84375 450.1953125 C-366.70087524 450.1924826 -365.55800049 450.18965271 -364.38049316 450.18673706 C-360.75355268 450.17560025 -357.12686504 450.15050741 -353.5 450.125 C-351.03125358 450.11496181 -348.56250327 450.10583743 -346.09375 450.09765625 C-340.06241468 450.07568219 -334.03122541 450.04226957 -328 450 C-328 449.34 -328 448.68 -328 448 C-317.11 448 -306.22 448 -295 448 C-295 447.01 -295 446.02 -295 445 C-290.867897 443.8692803 -286.77638098 443.67330056 -282.515625 443.46484375 C-281.70003113 443.42186661 -280.88443726 443.37888947 -280.04412842 443.33460999 C-277.44626129 443.1985622 -274.84815313 443.06796025 -272.25 442.9375 C-270.48565843 442.84606237 -268.72133522 442.75426962 -266.95703125 442.66210938 C-262.63822292 442.43728909 -258.31919038 442.21735158 -254 442 C-253.67 441.34 -253.34 440.68 -253 440 C-251.68 440 -250.36 440 -249 440 C-249 439.34 -249 438.68 -249 438 C-248.34 438 -247.68 438 -247 438 C-246.64808594 439.10214844 -246.29617188 440.20429687 -245.93359375 441.33984375 C-236.82921481 469.47894485 -224.89057255 495.82113149 -205 518 C-204.24976563 518.87140625 -203.49953125 519.7428125 -202.7265625 520.640625 C-176.44540829 550.81176955 -139.31052781 570.41305871 -100 577 C-99.05012207 577.17208984 -98.10024414 577.34417969 -97.12158203 577.52148438 C-87.52572848 579.10366706 -78.12195127 579.30709058 -68.41552734 579.26074219 C-65.76766771 579.2500712 -63.12049477 579.2606721 -60.47265625 579.2734375 C-45.07596855 579.28802371 -30.0008648 578.25342401 -15.0625 574.3125 C-13.54402466 573.91840942 -13.54402466 573.91840942 -11.99487305 573.51635742 C10.96562807 567.38573207 32.20081899 557.64839907 51 543 C51.89074219 542.33097656 52.78148437 541.66195312 53.69921875 540.97265625 C74.00724289 525.15728917 89.32205543 505.78660193 101 483 C101.35545898 482.3188916 101.71091797 481.6377832 102.07714844 480.93603516 C127.29272702 432.19775487 131.35527557 373.15093466 128.25 319.25 C128.20743073 318.50319977 128.16486145 317.75639954 128.1210022 316.98696899 C124.80802612 260.5170416 110.05294986 199.85476852 66.3125 160.5625 C64.88569446 159.36217153 63.44651651 158.1765001 62 157 C61.50371094 156.59136719 61.00742187 156.18273437 60.49609375 155.76171875 C39.05663968 138.17427062 14.18122594 125.65948269 -12.8125 119.125 C-13.59842529 118.93397705 -14.38435059 118.7429541 -15.1940918 118.54614258 C-30.18313081 115.16705751 -44.96275473 114.6789377 -60.26318359 114.73925781 C-63.49465696 114.74998227 -66.72557461 114.73930213 -69.95703125 114.7265625 C-85.61494317 114.71440603 -100.45612929 115.71047563 -115.6875 119.625 C-116.70078369 119.88369873 -117.71406738 120.14239746 -118.75805664 120.40893555 C-148.81981672 128.36776954 -174.08911359 143.1534392 -197 164 C-197.74507812 164.67289063 -198.49015625 165.34578125 -199.2578125 166.0390625 C-205.57409722 172.04848319 -210.81307264 179.02008351 -216 186 C-216.42039551 186.56009766 -216.84079102 187.12019531 -217.27392578 187.69726562 C-239.86053381 218.21922423 -249.20704583 256.14141906 -255 293 C-256.41732422 292.75636719 -256.41732422 292.75636719 -257.86328125 292.5078125 C-262.63497607 291.82802914 -267.37594788 291.85378816 -272.1875 291.875 C-273.52071289 291.86919922 -273.52071289 291.86919922 -274.88085938 291.86328125 C-276.16766602 291.86521484 -276.16766602 291.86521484 -277.48046875 291.8671875 C-278.25285889 291.86831543 -279.02524902 291.86944336 -279.82104492 291.87060547 C-282.00669028 292.00039729 -283.88661825 292.45058396 -286 293 C-288.77366719 293.20192521 -291.53561011 293.3703958 -294.3125 293.5 C-298.29569753 293.68884343 -302.21701743 293.88303594 -306.1640625 294.47265625 C-312.10572353 295.28948338 -318.07855026 295.5688704 -324.0625 295.9375 C-335.91050172 296.68967672 -347.73420343 297.60077531 -359.54907227 298.77099609 C-361.27456342 298.9322184 -363.00192592 299.07400436 -364.73022461 299.20166016 C-370.76019868 299.66602843 -376.37441909 300.58447226 -382.1875 302.25 C-382.96488525 302.46744873 -383.74227051 302.68489746 -384.54321289 302.90893555 C-390.03079298 304.52218113 -394.32756772 306.66254837 -399 310 C-399.99 310 -400.98 310 -402 310 C-402.33 310.66 -402.66 311.32 -403 312 C-402.01342662 239.80076637 -377.20465186 166.50997506 -331.33300781 110.62548828 C-330.46436985 109.56625906 -329.60142659 108.50232604 -328.74511719 107.43310547 C-321.70294188 98.65371388 -313.86660351 90.65842448 -305.9375 82.6875 C-305.43070709 82.17544006 -304.92391418 81.66338013 -304.40176392 81.13580322 C-297.60785305 74.28737849 -290.59055372 67.97537864 -283 62 C-281.89316963 61.1068446 -280.78638734 60.21362962 -279.6796875 59.3203125 C-234.99960812 24.34788268 -180.82480226 5.95765039 -124.88818359 -0.64404297 C-121.95642893 -1.00536996 -119.03674341 -1.42484345 -116.11328125 -1.84765625 C-77.93979455 -6.96966839 -38.04472414 -5.57270882 0 0 Z " fill="#FEFEFE" transform="translate(576,143)"/>
<path d="M0 0 C1.54327972 -0.00855011 1.54327972 -0.00855011 3.11773682 -0.01727295 C5.29283636 -0.02668541 7.46794993 -0.03324193 9.64306641 -0.03710938 C12.90163614 -0.04672309 16.15954912 -0.07774466 19.41796875 -0.109375 C64.20860968 -0.33505759 107.61314136 14.06053442 141.203125 44.203125 C142.1209375 44.99976563 143.03875 45.79640625 143.984375 46.6171875 C149.16748793 51.16021721 153.87226234 55.84241814 158.203125 61.203125 C159.37681641 62.65525391 159.37681641 62.65525391 160.57421875 64.13671875 C170.18356794 76.226913 177.6139161 89.27488848 184.203125 103.203125 C184.99009766 104.84667969 184.99009766 104.84667969 185.79296875 106.5234375 C206.53321171 152.18498036 209.28643264 206.62986508 206.453125 256.015625 C206.41088806 256.76270721 206.36865112 257.50978943 206.32513428 258.2795105 C205.10997469 279.15909096 202.46787139 299.93251518 197.203125 320.203125 C196.89036621 321.42491455 196.89036621 321.42491455 196.57128906 322.67138672 C189.84481132 348.56686162 179.50432641 373.79480766 163.203125 395.203125 C162.24986328 396.48896484 162.24986328 396.48896484 161.27734375 397.80078125 C150.59921878 411.54757126 137.56853297 424.37233978 123.203125 434.203125 C122.61950195 434.60402344 122.03587891 435.00492188 121.43457031 435.41796875 C101.09608263 449.21332965 79.13217725 457.67384187 55.265625 463.015625 C54.34281738 463.22292236 53.42000977 463.43021973 52.46923828 463.64379883 C40.02311436 466.28189643 27.54918605 466.41556967 14.87939453 466.44335938 C12.2356751 466.45300623 9.59275503 466.48410156 6.94921875 466.515625 C-42.08477208 466.82042657 -87.17085375 446.37397893 -121.796875 412.203125 C-130.09088904 403.91189139 -137.14853892 394.85045307 -143.796875 385.203125 C-144.48394531 384.213125 -145.17101562 383.223125 -145.87890625 382.203125 C-155.97459902 366.74088271 -170.73617258 341.30217571 -169.796875 322.203125 C-167.546875 319.015625 -167.546875 319.015625 -164.796875 316.203125 C-160.6922606 310.34527725 -161.41658968 304.00478993 -161.50390625 297.1484375 C-161.51027351 295.26341019 -161.51027351 295.26341019 -161.51676941 293.34030151 C-161.53068378 290.01596765 -161.55758876 286.6922627 -161.59088135 283.36810303 C-161.62169254 279.96941534 -161.63529822 276.57066241 -161.65039062 273.171875 C-161.68342479 266.51545249 -161.73359877 259.85932502 -161.796875 253.203125 C-162.456875 253.203125 -163.116875 253.203125 -163.796875 253.203125 C-163.82779739 252.51931763 -163.85871979 251.83551025 -163.89057922 251.13098145 C-164.21597875 243.99211508 -164.55966442 236.8542933 -164.91381836 229.71679688 C-165.04493887 227.05553607 -165.1685264 224.39422917 -165.28881836 221.73242188 C-165.4628677 217.8990389 -165.65366939 214.06679451 -165.84765625 210.234375 C-165.89779373 209.05073364 -165.94793121 207.86709229 -165.99958801 206.64758301 C-166.34486185 200.18155101 -167.20158051 195.13474496 -169.796875 189.203125 C-169.95420609 188.49418091 -170.11153717 187.78523682 -170.27363586 187.05480957 C-170.61553236 185.0155821 -170.61553236 185.0155821 -172.671875 184.140625 C-173.373125 183.83125 -174.074375 183.521875 -174.796875 183.203125 C-176.44116211 181.98583984 -176.44116211 181.98583984 -177.796875 180.203125 C-177.94360352 177.69384766 -177.94360352 177.69384766 -177.61328125 174.7421875 C-177.49355957 173.6687207 -177.37383789 172.59525391 -177.25048828 171.48925781 C-173.67925616 145.61800683 -166.41873217 120.59790785 -154.796875 97.203125 C-154.46187988 96.51686035 -154.12688477 95.8305957 -153.78173828 95.12353516 C-134.1936837 55.29416584 -97.81459027 24.93346333 -56.29931641 10.05078125 C-38.26022148 3.94036783 -19.04890303 0.08365041 0 0 Z " fill="#1C2A69" transform="translate(498.796875,256.796875)"/>
<path d="M0 0 C0.87720703 -0.01224609 1.75441406 -0.02449219 2.65820312 -0.03710938 C10.52719122 -0.05476604 16.68992375 0.97539638 22.61328125 6.40625 C27.9791479 12.47780134 29.2344415 19.38969144 29.72265625 27.2421875 C29.76572403 27.93258118 29.80879181 28.62297485 29.85316467 29.33428955 C29.99053109 31.57675442 30.12093941 33.81954269 30.25 36.0625 C30.29485535 36.82205994 30.33971069 37.58161987 30.38592529 38.36419678 C31.12336404 50.98196367 31.43321058 63.5470555 31.1875 76.1875 C31.8475 76.1875 32.5075 76.1875 33.1875 76.1875 C33.90204762 89.26030065 34.36568088 102.35106625 34.52954102 115.44265747 C34.55133547 116.8857529 34.58195091 118.32874482 34.62182617 119.77145386 C34.85056244 128.38464794 34.52444681 135.09170654 29.1875 142.1875 C28.465625 143.198125 27.74375 144.20875 27 145.25 C26.401875 145.889375 25.80375 146.52875 25.1875 147.1875 C24.5275 147.1875 23.8675 147.1875 23.1875 147.1875 C23.1875 147.8475 23.1875 148.5075 23.1875 149.1875 C21.8675 149.1875 20.5475 149.1875 19.1875 149.1875 C18.8575 150.1775 18.5275 151.1675 18.1875 152.1875 C-2.1075 153.1775 -2.1075 153.1775 -22.8125 154.1875 C-22.8125 155.1775 -22.8125 156.1675 -22.8125 157.1875 C-33.7025 157.1875 -44.5925 157.1875 -55.8125 157.1875 C-55.8125 157.8475 -55.8125 158.5075 -55.8125 159.1875 C-66.8144142 160.06514558 -77.83800245 160.3700819 -88.87188721 160.47460938 C-90.35615735 160.49133581 -91.84036749 160.51508753 -93.32440186 160.54638672 C-103.2050051 160.74468391 -111.49759923 159.75325812 -120.8125 156.1875 C-120.8125 155.5275 -120.8125 154.8675 -120.8125 154.1875 C-121.8025 154.5175 -122.7925 154.8475 -123.8125 155.1875 C-125.5431191 153.62660887 -127.27192827 152.06371088 -129 150.5 C-129.96292969 149.62988281 -130.92585938 148.75976562 -131.91796875 147.86328125 C-135.96912658 144.1182838 -139.84415455 140.25733767 -143.5 136.125 C-144.37205078 135.14853516 -144.37205078 135.14853516 -145.26171875 134.15234375 C-146.8125 132.1875 -146.8125 132.1875 -147.89453125 130.00390625 C-148.67720752 128.00657914 -148.67720752 128.00657914 -150.8125 127.1875 C-153.38878313 123.64511069 -154.40148008 120.29466363 -155.34375 116.1015625 C-155.80154184 114.03351152 -155.80154184 114.03351152 -156.875 111.5625 C-159.17078375 105.74651449 -158.99952576 99.60048489 -159.05078125 93.44140625 C-159.058853 92.51206772 -159.06692474 91.58272919 -159.07524109 90.62522888 C-159.08902434 88.6661055 -159.09977204 86.70695869 -159.10766602 84.74780273 C-159.11921207 82.75098601 -159.13970504 80.75420077 -159.16918945 78.75756836 C-159.21192621 75.86030273 -159.22803993 72.96394816 -159.23828125 70.06640625 C-159.26454338 68.73797447 -159.26454338 68.73797447 -159.29133606 67.38270569 C-159.27056141 61.41072659 -158.0930169 58.16870696 -154.8125 53.1875 C-154.420625 51.99125 -154.02875 50.795 -153.625 49.5625 C-151.72451707 44.10800663 -148.11452228 39.59214847 -144.7734375 34.9453125 C-142.84875824 32.38821766 -142.84875824 32.38821766 -141.8125 30.1875 C-141.1525 30.1875 -140.4925 30.1875 -139.8125 30.1875 C-139.8125 29.5275 -139.8125 28.8675 -139.8125 28.1875 C-138.8225 28.1875 -137.8325 28.1875 -136.8125 28.1875 C-136.585625 27.630625 -136.35875 27.07375 -136.125 26.5 C-130.81532262 17.14485414 -118.88957219 12.88833564 -109.0625 9.875 C-99.91127607 7.63252073 -90.57196047 7.21953118 -81.1953125 6.62109375 C-75.89588512 6.2819492 -70.64461784 5.77167724 -65.375 5.125 C-58.34759676 4.27747804 -51.33793982 3.81667809 -44.26586914 3.52905273 C-39.71738491 3.33576316 -35.32334302 2.83839346 -30.8125 2.1875 C-27.16765291 1.90884459 -23.51647182 1.75244337 -19.86523438 1.58203125 C-15.822232 1.40336908 -15.822232 1.40336908 -11.85351562 0.68041992 C-7.97500548 -0.25626812 -3.97077524 0.00287946 0 0 Z " fill="#E52F44" transform="translate(303.8125,433.8125)"/>
<path d="M0 0 C1.5485035 1.19411961 3.07093858 2.42297271 4.5625 3.6875 C5.28050781 4.29464844 5.99851562 4.90179687 6.73828125 5.52734375 C15.79833937 13.8707871 21.6458545 26.0635495 22.9453125 38.2890625 C23.45722332 54.77259085 17.9751534 68.58281973 6.8203125 80.5859375 C2.79332331 84.33424231 -1.60051055 87.09793283 -6.4375 89.6875 C-7.23285156 90.12320313 -8.02820313 90.55890625 -8.84765625 91.0078125 C-20.30302858 96.19994639 -36.82904441 95.43211393 -48.44921875 91.13671875 C-61.85802973 84.63388362 -72.01156167 74.77811505 -77.4375 60.6875 C-79.22419265 54.74643457 -79.74740059 49.43473626 -79.6875 43.25 C-79.69523437 42.45529297 -79.70296875 41.66058594 -79.7109375 40.84179688 C-79.66530991 26.82272094 -74.48635918 16.12693358 -64.8515625 5.9765625 C-57.88430292 -0.62993283 -50.61685783 -4.58508697 -41.4375 -7.3125 C-40.83292969 -7.50328125 -40.22835937 -7.6940625 -39.60546875 -7.890625 C-25.77490081 -10.58197876 -11.70184422 -7.77744525 0 0 Z " fill="#FDFDFE" transform="translate(554.4375,881.3125)"/>
<path d="M0 0 C7.29273784 4.3511293 12.49150809 11.06482825 15.4375 19 C18.14114994 29.94161686 16.65681289 40.1684696 11.3515625 50.015625 C10.3125 51.6875 10.3125 51.6875 8.4375 54 C7.7775 54 7.1175 54 6.4375 54 C6.169375 54.804375 5.90125 55.60875 5.625 56.4375 C5.233125 57.283125 4.84125 58.12875 4.4375 59 C3.4475 59.33 2.4575 59.66 1.4375 60 C1.4375 60.66 1.4375 61.32 1.4375 62 C-5.34448935 65.01421749 -12.78159823 65.13381881 -19.83203125 63.01953125 C-30.42624942 58.77400609 -36.64576037 52.72696579 -41.4375 42.375 C-44.3792971 33.5496087 -43.545633 22.97996624 -39.94921875 14.5 C-31.74451915 -0.29157111 -15.99833258 -7.19191098 0 0 Z " fill="#FEFDFD" transform="translate(238.5625,483)"/>
<path d="M0 0 C1.29357422 -0.00193359 1.29357422 -0.00193359 2.61328125 -0.00390625 C3.50660156 -0.00003906 4.39992188 0.00382812 5.3203125 0.0078125 C6.20589844 0.00394531 7.09148437 0.00007813 8.00390625 -0.00390625 C12.59806945 0.00294049 16.92579892 0.19311166 21.4453125 1.1328125 C21.4453125 1.4628125 21.4453125 1.7928125 21.4453125 2.1328125 C20.75904785 2.18816162 20.0727832 2.24351074 19.36572266 2.30053711 C16.26688815 2.55286553 13.16861266 2.81150899 10.0703125 3.0703125 C8.44996094 3.20083008 8.44996094 3.20083008 6.796875 3.33398438 C5.765625 3.42099609 4.734375 3.50800781 3.671875 3.59765625 C2.24222412 3.71548462 2.24222412 3.71548462 0.78369141 3.83569336 C-1.57300545 4.00409424 -1.57300545 4.00409424 -3.5546875 5.1328125 C-6.26836258 5.26584863 -8.96049599 5.34286333 -11.67578125 5.37890625 C-13.35091581 5.41188888 -15.0260459 5.44509967 -16.70117188 5.47851562 C-19.33386637 5.52558464 -21.9665489 5.56992596 -24.59936523 5.60961914 C-37.31864353 5.80727541 -37.31864353 5.80727541 -49.87768555 7.67163086 C-55.60234277 8.6578486 -61.4468744 8.57257702 -67.2421875 8.6953125 C-69.89457883 8.76647738 -72.54692414 8.8393799 -75.19921875 8.9140625 C-77.09534912 8.96626953 -77.09534912 8.96626953 -79.02978516 9.01953125 C-85.54926801 9.22905058 -92.05056869 9.64448409 -98.5546875 10.1328125 C-95.29945673 7.96265865 -94.01236346 7.81072331 -90.20703125 7.5703125 C-88.60033569 7.45997681 -88.60033569 7.45997681 -86.96118164 7.34741211 C-85.24402954 7.2411853 -85.24402954 7.2411853 -83.4921875 7.1328125 C-75.67655597 6.59748059 -67.89394112 6.02044975 -60.1171875 5.0703125 C-53.08970376 4.22322806 -46.08017408 3.76199249 -39.00805664 3.47436523 C-34.45957241 3.28107566 -30.06553052 2.78370596 -25.5546875 2.1328125 C-21.90984041 1.85415709 -18.25865932 1.69775587 -14.60742188 1.52734375 C-10.56513519 1.34933024 -10.56513519 1.34933024 -6.59790039 0.62353516 C-4.3342777 0.07987622 -2.32656068 0.00336973 0 0 Z " fill="#D66977" transform="translate(298.5546875,433.8671875)"/>
<path d="M0 0 C0.66 0 1.32 0 2 0 C2.717798 13.13226709 3.14116158 26.26866002 3.23217773 39.41995239 C3.24400639 40.88344432 3.26104929 42.34690389 3.28344727 43.81027222 C3.31349601 45.88674126 3.32337084 47.96240002 3.328125 50.0390625 C3.34214355 51.83657959 3.34214355 51.83657959 3.35644531 53.67041016 C2.96088929 57.36533694 1.84500751 59.80137808 0 63 C-0.495 61.515 -0.495 61.515 -1 60 C-0.67 59.34 -0.34 58.68 0 58 C0.09101612 56.1514292 0.11753146 54.29953621 0.11352539 52.44873047 C0.11344986 51.28767792 0.11337433 50.12662537 0.11329651 48.9303894 C0.10813522 47.67203278 0.10297394 46.41367615 0.09765625 45.1171875 C0.0962413 43.83264679 0.09482635 42.54810608 0.09336853 41.22463989 C0.08954911 37.80843158 0.07972373 34.39226574 0.06866455 30.97607422 C0.05843807 27.49056574 0.05386826 24.0050504 0.04882812 20.51953125 C0.03810096 13.67967005 0.02103142 6.83983706 0 0 Z " fill="#963151" transform="translate(335,510)"/>
<path d="M0 0 C1.11305584 2.7826396 1.01525037 3.95511327 0.03515625 6.83984375 C-1.64241788 12.43296892 -1.25245023 18.21584311 -1.1875 24 C-1.17887939 25.20301758 -1.17025879 26.40603516 -1.16137695 27.64550781 C-1.5331082 44.30081779 -1.5331082 44.30081779 3 60 C3.34403308 62.33177975 3.67949202 64.66487041 4 67 C4.66 67.66 5.32 68.32 6 69 C5.625 71.125 5.625 71.125 5 73 C2.51103886 69.37969288 1.41574638 66.12819638 0.46875 61.9140625 C0.01095816 59.84601152 0.01095816 59.84601152 -1.0625 57.375 C-3.36602886 51.53939357 -3.17365301 45.39613464 -3.203125 39.21875 C-3.20882507 38.28703979 -3.21452515 37.35532959 -3.22039795 36.39538574 C-3.22981212 34.43205896 -3.23636762 32.46871664 -3.24023438 30.50537109 C-3.24996812 27.50981167 -3.28103675 24.51493078 -3.3125 21.51953125 C-3.31902832 19.60677488 -3.32427946 17.69401364 -3.328125 15.78125 C-3.3404718 14.89046753 -3.3528186 13.99968506 -3.36553955 13.08190918 C-3.34720618 7.94389105 -2.78336745 4.49380645 0 0 Z " fill="#813B53" transform="translate(148,488)"/>
<path d="M0 0 C3 1 3 1 4.1328125 2.70703125 C4.46023438 3.40183594 4.78765625 4.09664063 5.125 4.8125 C5.45757812 5.49957031 5.79015625 6.18664062 6.1328125 6.89453125 C7.68104053 10.65351732 8.12241436 13.92404564 8.09765625 17.984375 C8.09443359 18.91894531 8.09121094 19.85351562 8.08789062 20.81640625 C8.07951172 21.78449219 8.07113281 22.75257813 8.0625 23.75 C8.05798828 24.73355469 8.05347656 25.71710938 8.04882812 26.73046875 C8.03706483 29.15370791 8.02062684 31.57682273 8 34 C6.01647146 30.34294676 5.6571271 27.48541481 5.4375 23.3125 C5.56917186 19.33729387 5.56917186 19.33729387 4 16 C3.75572862 13.5165743 3.61640241 11.03432707 3.4765625 8.54296875 C2.93106588 5.63216303 1.84111881 4.26940045 0 2 C0 1.34 0 0.68 0 0 Z " fill="#AD314D" transform="translate(325,441)"/>
<path d="M0 0 C1.64630328 0.14042877 3.29204179 0.28749329 4.9375 0.4375 C6.31228516 0.55931641 6.31228516 0.55931641 7.71484375 0.68359375 C10 1 10 1 11 2 C13.37338639 2.15971977 15.72118272 2.2592433 18.09765625 2.31640625 C18.80651474 2.33718735 19.51537323 2.35796844 20.24571228 2.37937927 C22.51787305 2.44494598 24.79015264 2.5037923 27.0625 2.5625 C28.59962183 2.60567849 30.1367315 2.64929255 31.67382812 2.69335938 C35.4490959 2.80063449 39.2244836 2.90188137 43 3 C43 3.33 43 3.66 43 4 C38.32270714 4.07476614 33.64577049 4.12888954 28.96801758 4.16479492 C27.38039074 4.17978013 25.79280457 4.20017546 24.20532227 4.22631836 C7.97104742 4.48676127 7.97104742 4.48676127 0 1 C0 0.67 0 0.34 0 0 Z " fill="#DA7581" transform="translate(187,590)"/>
<path d="M0 0 C0 0.33 0 0.66 0 1 C-8.7784452 3.04404545 -17.03898756 3.21767642 -26 3 C-20.61553786 -2.38446214 -7.24442867 -0.08590232 0 0 Z " fill="#D43E51" transform="translate(247,590)"/>
<path d="M0 0 C0.77214844 0.00902344 1.54429687 0.01804687 2.33984375 0.02734375 C2.90832031 0.03894531 3.47679687 0.05054688 4.0625 0.0625 C-0.60633869 2.47741657 -4.08670467 3.18399681 -9.35546875 3.16015625 C-10.60908203 3.15693359 -11.86269531 3.15371094 -13.15429688 3.15039062 C-14.46462891 3.14201172 -15.77496094 3.13363281 -17.125 3.125 C-18.46028481 3.11998317 -19.79557141 3.11542059 -21.13085938 3.11132812 C-24.39978473 3.09952695 -27.66861991 3.08306297 -30.9375 3.0625 C-30.9375 2.7325 -30.9375 2.4025 -30.9375 2.0625 C-29.64714844 2.00191406 -28.35679687 1.94132812 -27.02734375 1.87890625 C-25.30988745 1.79444119 -23.59243998 1.70979623 -21.875 1.625 C-21.02744141 1.58568359 -20.17988281 1.54636719 -19.30664062 1.50585938 C-12.84666707 1.1816136 -6.45833376 -0.09935898 0 0 Z " fill="#DA7985" transform="translate(277.9375,435.9375)"/>
<path d="M0 0 C0.33 0 0.66 0 1 0 C1.03738281 1.00160156 1.07476562 2.00320313 1.11328125 3.03515625 C1.43257369 9.94159049 1.86873576 15.73747153 5 22 C5.34403308 24.33177975 5.67949202 26.66487041 6 29 C6.66 29.66 7.32 30.32 8 31 C7.625 33.125 7.625 33.125 7 35 C4.5479849 31.43343258 3.41003918 28.2321851 2.52734375 24.0625 C2.05233569 21.92657696 2.05233569 21.92657696 0.94921875 19.80078125 C-0.37454416 15.89486351 -0.21415361 12.27827928 -0.125 8.1875 C-0.11597656 7.39923828 -0.10695312 6.61097656 -0.09765625 5.79882812 C-0.07422504 3.86575334 -0.03835838 1.9328362 0 0 Z " fill="#A5324F" transform="translate(146,526)"/>
<path d="M0 0 C5.28 0 10.56 0 16 0 C16 0.66 16 1.32 16 2 C12.34471125 4.3393848 9.26476789 4.29928196 5 4 C2.0625 3 2.0625 3 0 2 C0 1.34 0 0.68 0 0 Z " fill="#DA5263" transform="translate(220,546)"/>
<path d="M0 0 C0 1.32 0 2.64 0 4 C-3.3 4.66 -6.6 5.32 -10 6 C-10 6.66 -10 7.32 -10 8 C-10.66 7.67 -11.32 7.34 -12 7 C-10.67368911 4.34737821 -9.14656892 3.78900251 -6.5625 2.375 C-5.75941406 1.92898438 -4.95632812 1.48296875 -4.12890625 1.0234375 C-2 0 -2 0 0 0 Z " fill="#D96775" transform="translate(185,448)"/>
<path d="M0 0 C2.64 0.66 5.28 1.32 8 2 C7.67 3.32 7.34 4.64 7 6 C5.83054208 5.19152271 4.66449539 4.37810888 3.5 3.5625 C2.8503125 3.11003906 2.200625 2.65757812 1.53125 2.19140625 C1.0259375 1.79824219 0.520625 1.40507813 0 1 C0 0.67 0 0.34 0 0 Z " fill="#A63854" transform="translate(174,583)"/>
<path d="M0 0 C1 2 1 2 0.1875 5.0625 C-1 8 -1 8 -3 9 C-2.5020163 5.26512223 -2.12508244 3.18762365 0 0 Z " fill="#963452" transform="translate(153,478)"/>
</svg>
