<?xml version="1.0" encoding="UTF-8"?>
<svg version="1.1" xmlns="http://www.w3.org/2000/svg" width="900" height="600">
<path d="M0 0 C22.30352896 20.42492792 36.13943197 45.32446587 43.3125 74.625 C43.55508545 75.61298584 43.7976709 76.60097168 44.04760742 77.61889648 C47.49447952 92.50416916 48.35023565 107.06081671 48.31567383 122.27954102 C48.31252285 125.1665665 48.33604106 128.05255389 48.36132812 130.93945312 C48.51036963 174.65604591 35.18221232 215.58944063 4.375 247.125 C-22.66903723 273.89718965 -60.79075445 287.9778324 -98.671875 288.203125 C-99.86620148 288.21371445 -99.86620148 288.21371445 -101.08465576 288.22451782 C-134.47696855 288.45335479 -134.47696855 288.45335479 -150 285 C-151.38131104 284.70198486 -151.38131104 284.70198486 -152.79052734 284.39794922 C-166.24678584 281.41437422 -178.71967896 277.26473478 -191 271 C-191.62696777 270.68305176 -192.25393555 270.36610352 -192.89990234 270.03955078 C-213.58589221 259.39583927 -231.65464985 242.69415213 -244 223 C-244.58322021 222.0706665 -244.58322021 222.0706665 -245.17822266 221.12255859 C-252.01024211 210.03425013 -258.50127064 197.62139186 -260.86328125 184.703125 C-261.56560968 180.91353431 -262.27972284 177.49022111 -264 174 C-267.25889564 171.9465083 -270.23295921 170.93236284 -273.93359375 169.89453125 C-277.78671836 168.77049872 -279.54951361 167.13968569 -282 164 C-282.87220752 162.95599402 -283.74729453 161.91438806 -284.625 160.875 C-285.40875 159.92625 -286.1925 158.9775 -287 158 C-287.75023437 157.32130859 -287.75023437 157.32130859 -288.515625 156.62890625 C-290.37188878 154.591901 -291.14377888 152.63144505 -292.125 150.0625 C-292.62386719 148.78052734 -292.62386719 148.78052734 -293.1328125 147.47265625 C-297.34936872 135.44977298 -295.16073645 122.48408205 -290.8125 110.8125 C-284.38576657 100.83998261 -277.43676382 94.93136471 -266 92 C-265.91363281 91.20980469 -265.82726562 90.41960937 -265.73828125 89.60546875 C-261.97273258 59.37744045 -249.94066005 31.30506566 -229 9 C-228.43265137 8.39027344 -227.86530273 7.78054687 -227.28076172 7.15234375 C-171.09851311 -52.6706475 -60.77968524 -54.10775192 0 0 Z M-166 36 C-167.28003906 37.01707031 -167.28003906 37.01707031 -168.5859375 38.0546875 C-181.93814589 49.27054255 -189.60539905 64.50657846 -194.4375 81 C-194.84488403 82.38155273 -194.84488403 82.38155273 -195.26049805 83.79101562 C-195.50324463 84.66435547 -195.74599121 85.53769531 -195.99609375 86.4375 C-196.21450928 87.21996094 -196.4329248 88.00242187 -196.65795898 88.80859375 C-197.14349924 91.91937844 -196.54612027 94.04428953 -195 96.75 C-188.43791667 111.51468749 -191.84923186 133.9870048 -192.3125 149.9375 C-192.32955994 150.62079376 -192.34661987 151.30408752 -192.36419678 152.00808716 C-192.4153957 153.95232671 -192.48274658 155.89612051 -192.55078125 157.83984375 C-192.58856689 158.95738037 -192.62635254 160.07491699 -192.6652832 161.22631836 C-193 164 -193 164 -195 167 C-194.77897457 168.93373632 -194.77897457 168.93373632 -193.98046875 170.95703125 C-193.56692139 172.12117554 -193.56692139 172.12117554 -193.14501953 173.30883789 C-192.82903809 174.13504639 -192.51305664 174.96125488 -192.1875 175.8125 C-191.8663623 176.66255615 -191.54522461 177.5126123 -191.21435547 178.38842773 C-186.40558868 190.59167769 -179.28470099 200.71529901 -170 210 C-169.37738281 210.62261719 -168.75476563 211.24523437 -168.11328125 211.88671875 C-150.37180891 228.43798749 -127.64902875 233.88959639 -104.05859375 233.28515625 C-81.69149443 232.28201556 -60.86887528 222.56923341 -45.48193359 206.40527344 C-32.94166809 192.48645334 -26.89927122 176.08150175 -23 158 C-22.76539063 156.94039062 -22.53078125 155.88078125 -22.2890625 154.7890625 C-16.12362005 121.45993158 -19.19281365 80.98852032 -38 52 C-52.71770612 32.98481612 -71.25395887 21.88596726 -95 18 C-99.78081007 17.59468607 -104.51630483 17.52188979 -109.3125 17.5625 C-111.21044312 17.57385986 -111.21044312 17.57385986 -113.14672852 17.58544922 C-132.86839394 17.93133262 -150.53854807 23.34122818 -166 36 Z " fill="#353535" transform="translate(326,142)"/>
<path d="M0 0 C15.53254544 14.52730764 18.82618406 34.3790712 19.97489166 54.75561142 C20.19960706 61.63256753 20.13382094 68.50753874 20.0703125 75.38671875 C20.06213518 77.57745363 20.05548714 79.76819468 20.05026245 81.9589386 C20.0333443 87.67113073 19.99924964 93.38307499 19.96020508 99.09515381 C19.89340469 109.29639985 19.85612586 119.49782412 19.8203125 129.69921875 C19.81617718 130.78172661 19.81204185 131.86423447 19.80778122 132.97954559 C19.54010027 177.37713777 19.54010027 177.37713777 29.87695312 220.25878906 C31.25353138 224.10832261 32.51967843 227.99653528 33.8125 231.875 C12.6925 231.875 -8.4275 231.875 -30.1875 231.875 C-32.60413017 225.83342458 -34.93648414 219.91665264 -36.9375 213.75 C-37.15792969 213.0796875 -37.37835937 212.409375 -37.60546875 211.71875 C-38.13566741 210.10510191 -38.66202413 208.49019221 -39.1875 206.875 C-39.95191406 207.56464844 -40.71632813 208.25429688 -41.50390625 208.96484375 C-66.47413115 231.04735556 -94.16730572 238.26432804 -127.1875 236.875 C-145.80054471 235.31781658 -163.23442332 227.39953594 -176.1875 213.875 C-190.81256297 196.45396911 -195.38150092 177.13458862 -194.1875 154.875 C-192.72534698 140.10725454 -186.37296665 125.75926166 -176.1875 114.875 C-175.49527344 114.12992188 -174.80304687 113.38484375 -174.08984375 112.6171875 C-154.1055713 92.93317958 -121.2574391 88.5699465 -95.00390625 83.19140625 C-92.16886113 82.60874254 -89.33425096 82.02401438 -86.5 81.4375 C-85.80224457 81.29334656 -85.10448914 81.14919312 -84.3855896 81.00067139 C-64.25211984 77.0683407 -64.25211984 77.0683407 -45.1875 69.875 C-44.68393747 58.72668518 -45.05963421 49.80391757 -50.9375 39.9375 C-61.46404316 30.28816877 -77.67866747 30.1566917 -91.171875 30.52734375 C-100.92430637 31.03841219 -110.21406418 33.70963476 -117.1875 40.875 C-120.90858547 45.41118038 -123.47610841 50.33573579 -125.86328125 55.67578125 C-126.30196533 56.65329346 -126.74064941 57.63080566 -127.19262695 58.63793945 C-127.52093506 59.37616943 -127.84924316 60.11439941 -128.1875 60.875 C-143.29231094 58.40907024 -158.38495227 55.89457027 -173.4375 53.125 C-175.16673706 52.80946167 -175.16673706 52.80946167 -176.9309082 52.48754883 C-177.99011475 52.29056396 -179.04932129 52.0935791 -180.140625 51.890625 C-181.53522949 51.63200684 -181.53522949 51.63200684 -182.95800781 51.36816406 C-185.1875 50.875 -185.1875 50.875 -187.1875 49.875 C-185.0056287 29.85312221 -172.04433339 10.84448322 -157.1875 -2.125 C-118.14642598 -31.61732836 -37.97150293 -30.37720234 0 0 Z M-50.140625 114.94140625 C-50.97255371 115.17601562 -51.80448242 115.410625 -52.66162109 115.65234375 C-53.57766113 115.91144531 -54.49370117 116.17054688 -55.4375 116.4375 C-64.1091518 118.86305532 -72.8219722 120.96376285 -81.60748291 122.93457031 C-107.08075432 127.93029559 -107.08075432 127.93029559 -126.22265625 144.1015625 C-129.78464947 150.64870794 -130.40473153 158.30346568 -128.5 165.45703125 C-124.76685251 175.58319381 -118.71722771 182.69732121 -109.1875 187.875 C-95.99869615 192.5518808 -82.59098146 190.33257576 -70.25390625 184.484375 C-58.04521503 178.18952743 -51.10887115 170.2631946 -45.94921875 157.52734375 C-44.1982661 151.43043684 -44.04202948 145.17958007 -44.08984375 138.875 C-44.0912587 138.1538501 -44.09267365 137.4327002 -44.09413147 136.68969727 C-44.09966619 134.41808676 -44.11220577 132.14658 -44.125 129.875 C-44.13002346 128.32161602 -44.13458488 126.76823048 -44.13867188 125.21484375 C-44.14961411 121.43485672 -44.1668324 117.65494586 -44.1875 113.875 C-46.39269594 113.875 -48.02023742 114.33256565 -50.140625 114.94140625 Z " fill="#353535" transform="translate(810.1875,162.125)"/>
<path d="M0 0 C66.33 0 132.66 0 201 0 C201 47 201 47 183 68 C182.01386719 69.15113281 181.02773438 70.30226563 180.01171875 71.48828125 C177.97602231 73.86359208 175.93655424 76.2355951 173.89453125 78.60546875 C169.30393447 83.93835322 164.74238602 89.28185945 160.3125 94.75 C156.75732096 99.13151795 153.03230463 103.31710681 149.234375 107.48828125 C146.99865467 110.00151232 144.86622318 112.57311479 142.75 115.1875 C138.07807471 120.9563121 133.22166718 126.55092947 128.34765625 132.1484375 C125.08647063 135.89420173 121.85276066 139.66292952 118.625 143.4375 C111.52779309 151.72821408 104.31254763 159.89823981 97 168 C95.5206877 169.64570244 94.04152054 171.29153535 92.5625 172.9375 C87.72824465 178.30984384 82.86521048 183.65570159 78 189 C78.57196106 188.97003433 79.14392212 188.94006866 79.73321533 188.90919495 C104.87764621 187.66304225 130.0383761 187.88282031 155.20593262 187.93133545 C162.22997489 187.94355307 169.25402623 187.94798792 176.27807617 187.95378876 C186.85206903 187.96336187 197.42600409 187.98257034 208 188 C208 207.47 208 226.94 208 247 C136.39 247 64.78 247 -9 247 C-9 194 -9 194 2 182 C5.42446816 177.8358637 5.42446816 177.8358637 8.8203125 173.6484375 C10.97757399 171.02724881 13.21311 168.50845719 15.5 166 C18.61458668 162.58260628 21.5918662 159.0947765 24.5 155.5 C27.4081338 151.9052235 30.38541332 148.41739372 33.5 145 C36.52282421 141.68010514 39.42512161 138.30235888 42.25 134.8125 C47.46518515 128.37288007 52.91331752 122.14544597 58.35351562 115.89648438 C60.93637409 112.92144811 63.50056914 109.9305594 66.0625 106.9375 C66.79883667 106.07741333 66.79883667 106.07741333 67.55004883 105.19995117 C68.53885203 104.04469482 69.52754049 102.88934024 70.51611328 101.73388672 C72.0086556 99.98988614 73.50217627 98.24672896 74.99609375 96.50390625 C75.49149658 95.92592285 75.98689941 95.34793945 76.49731445 94.75244141 C77.49938073 93.58382536 78.50182245 92.41553115 79.50463867 91.24755859 C81.98982312 88.35187673 84.46752168 85.45044611 86.9296875 82.53515625 C92.93247617 75.44873823 99.09945427 68.57487458 105.54443359 61.88500977 C106.1111377 61.29002686 106.6778418 60.69504395 107.26171875 60.08203125 C107.76662842 59.55843018 108.27153809 59.0348291 108.79174805 58.49536133 C110.2299148 56.89402345 110.2299148 56.89402345 111 54 C109.97810074 54.01252808 108.95620148 54.02505615 107.90333557 54.03796387 C98.15433636 54.15728166 88.40531853 54.27496603 78.65628147 54.39115143 C73.64722782 54.45089726 68.6381818 54.51116958 63.62915039 54.57275391 C58.77264351 54.63244181 53.91612031 54.69060489 49.05958366 54.74781799 C47.22974971 54.769622 45.39992164 54.79192688 43.57010078 54.81480408 C29.04463512 54.99587317 14.52857658 55 0 55 C0 36.85 0 18.7 0 0 Z " fill="#353535" transform="translate(383,147)"/>
<path d="M0 0 C2.16861874 0.00503386 4.33723863 0.00959337 6.50585938 0.01367188 C11.73310233 0.02450784 16.96028774 0.04166424 22.1875 0.0625 C22.1875 0.7225 22.1875 1.3825 22.1875 2.0625 C23.363125 2.43375 23.363125 2.43375 24.5625 2.8125 C27.1875 4.0625 27.1875 4.0625 28.4375 5.6875 C31.99312753 16.94698718 30.96328305 30.40026822 31.1875 42.0625 C31.20248535 42.73575317 31.2174707 43.40900635 31.23291016 44.10266113 C31.32237631 48.3024088 31.35515673 52.49712296 31.32000732 56.69772339 C31.31263634 58.71273003 31.34854038 60.727746 31.38525391 62.74243164 C31.23154809 71.66372508 31.23154809 71.66372508 28.38964844 75.47119141 C18.12334363 84.16027061 1.13363013 81.55455055 -11.53710938 81.83984375 C-14.21415483 81.90148678 -16.89015034 81.97786909 -19.56640625 82.06738281 C-23.45552602 82.19286919 -27.34415557 82.2835676 -31.234375 82.3671875 C-32.41602234 82.41173065 -33.59766968 82.4562738 -34.81512451 82.50216675 C-44.06740811 82.64220353 -52.61969856 80.88894015 -59.62890625 74.4921875 C-60.20511719 73.64914062 -60.78132813 72.80609375 -61.375 71.9375 C-62.27412109 70.66519531 -62.27412109 70.66519531 -63.19140625 69.3671875 C-63.72636719 68.60664063 -64.26132813 67.84609375 -64.8125 67.0625 C-65.33457031 66.56878906 -65.85664062 66.07507813 -66.39453125 65.56640625 C-68.24658297 63.60210897 -68.97714487 61.63931559 -69.9375 59.125 C-70.27007812 58.27035156 -70.60265625 57.41570312 -70.9453125 56.53515625 C-75.16186872 44.51227298 -72.97323645 31.54658205 -68.625 19.875 C-62.96187479 11.08739192 -56.01275154 3.99833295 -45.8125 1.0625 C-42.66385398 0.58870721 -39.54390395 0.46321338 -36.36328125 0.37890625 C-35.00968254 0.32906334 -35.00968254 0.32906334 -33.6287384 0.2782135 C-22.42254244 -0.09053052 -11.21058219 -0.04608399 0 0 Z " fill="#DE3045" transform="translate(103.8125,232.9375)"/>
<path d="M0 0 C5.49059532 3.771318 9.0547667 8.96098888 10.93359375 15.328125 C11.99408977 23.64712709 10.98759113 30.50036892 5.93359375 37.328125 C0.54930975 42.56043324 -5.16951902 45.5934827 -12.75390625 45.765625 C-19.9894442 45.62322819 -25.53584137 43.47779906 -30.94921875 38.6484375 C-36.72489555 32.37052794 -37.54153853 25.84848082 -37.37109375 17.515625 C-36.63736358 9.8396786 -32.87564566 5.65610302 -27.1640625 0.7734375 C-19.29804178 -4.64635331 -8.33285209 -4.34225687 0 0 Z " fill="#353535" transform="translate(231.06640625,455.671875)"/>
<path d="M0 0 C3.88446678 2.58964452 6.69907021 5.64814041 8.8125 9.875 C9.46213655 17.48959233 9.82722424 23.83161438 4.8125 29.875 C1.45484539 32.65088277 -1.35739271 33.77123659 -5.6875 34.3125 C-10.40391478 33.72294815 -14.34663165 32.8392255 -17.703125 29.2578125 C-21.93615689 23.58944221 -23.20455534 17.91348527 -22.1875 10.875 C-18.11949009 0.89785501 -10.24594379 -3.61621545 0 0 Z " fill="#FEFBFC" transform="translate(82.1875,256.125)"/>
<path d="M0 0 C0.66 0.33 1.32 0.66 2 1 C0.71580959 2.67243402 -0.57757185 4.33781447 -1.875 6 C-2.59429687 6.928125 -3.31359375 7.85625 -4.0546875 8.8125 C-4.69664063 9.534375 -5.33859375 10.25625 -6 11 C-6.66 11 -7.32 11 -8 11 C-8.33 11.66 -8.66 12.32 -9 13 C-8.4352699 9.09170915 -6.57868029 7.10079777 -3.9375 4.25 C-3.20402344 3.45078125 -2.47054687 2.6515625 -1.71484375 1.828125 C-1.14894531 1.22484375 -0.58304688 0.6215625 0 0 Z " fill="#B24452" transform="translate(45,241)"/>
</svg>
